<svg xmlns="http://www.w3.org/2000/svg" viewBox="0 0 64 64">
  <defs>
    <linearGradient id="g" x1="0" y1="0" x2="1" y2="1">
      <stop offset="0%" stop-color="#fcd34d" />
      <stop offset="100%" stop-color="#f59e0b" />
    </linearGradient>
  </defs>
  <rect width="64" height="64" rx="14" fill="#09090b" />
  <circle cx="32" cy="32" r="22" fill="url(#g)" />
  <path
    d="M23 21h8.5c5.4 0 8.5 2.6 8.5 7.1 0 2.9-1.5 4.9-4 6 2.9.9 4.6 3.2 4.6 6.5 0 4.8-3.4 7.4-9.3 7.4H23V21Zm8.1 11.1c2.1 0 3.2-.9 3.2-2.6 0-1.7-1.1-2.6-3.2-2.6h-2.6v5.2h2.6Zm.7 10.4c2.3 0 3.5-1 3.5-2.9 0-1.9-1.2-2.9-3.5-2.9h-3.3v5.8h3.3Z"
    fill="#111827"
  />
</svg>
